<svg xmlns="http://www.w3.org/2000/svg" xmlns:xlink="http://www.w3.org/1999/xlink" width="500" zoomAndPan="magnify" viewBox="0 0 375 74.999997" height="100" preserveAspectRatio="xMidYMid meet" version="1.0"><defs><g/><clipPath id="daf03bc43e"><path d="M 11.230469 18 L 36 18 L 36 57 L 11.230469 57 Z M 11.230469 18 " clip-rule="nonzero"/></clipPath><clipPath id="ddf3e93db7"><path d="M 339 18 L 363.484375 18 L 363.484375 58 L 339 58 Z M 339 18 " clip-rule="nonzero"/></clipPath><clipPath id="c35d069344"><path d="M 0.839844 0.238281 L 24.484375 0.238281 L 24.484375 39 L 0.839844 39 Z M 0.839844 0.238281 " clip-rule="nonzero"/></clipPath><clipPath id="06f3c3c8ac"><rect x="0" width="25" y="0" height="40"/></clipPath><clipPath id="2c2e87168e"><path d="M 324 47 L 342 47 L 342 72 L 324 72 Z M 324 47 " clip-rule="nonzero"/></clipPath><clipPath id="3943a61e32"><path d="M 324.777344 47.667969 L 338.820312 45.25 L 343.148438 70.378906 L 329.105469 72.796875 Z M 324.777344 47.667969 " clip-rule="nonzero"/></clipPath><clipPath id="2e44d8e438"><path d="M 324.777344 47.667969 L 338.820312 45.25 L 343.148438 70.378906 L 329.105469 72.796875 Z M 324.777344 47.667969 " clip-rule="nonzero"/></clipPath><clipPath id="050f35d8c3"><path d="M 324.777344 47.667969 L 338.820312 45.25 L 343.148438 70.378906 L 329.105469 72.796875 Z M 324.777344 47.667969 " clip-rule="nonzero"/></clipPath><clipPath id="356f0f4532"><path d="M 326 49 L 341 49 L 341 70 L 326 70 Z M 326 49 " clip-rule="nonzero"/></clipPath><clipPath id="f305094f15"><path d="M 324.777344 47.667969 L 338.820312 45.25 L 343.148438 70.378906 L 329.105469 72.796875 Z M 324.777344 47.667969 " clip-rule="nonzero"/></clipPath><clipPath id="2d0b7bddbf"><path d="M 324.777344 47.667969 L 338.820312 45.25 L 343.148438 70.378906 L 329.105469 72.796875 Z M 324.777344 47.667969 " clip-rule="nonzero"/></clipPath><clipPath id="53a806faaf"><path d="M 324.777344 47.667969 L 338.820312 45.25 L 343.148438 70.378906 L 329.105469 72.796875 Z M 324.777344 47.667969 " clip-rule="nonzero"/></clipPath></defs><g clip-path="url(#daf03bc43e)"><path fill="#ffffff" d="M 34 51.066406 L 31.660156 48.882812 L 19.65625 37.644531 L 31.660156 26.410156 L 34 24.230469 C 35.375 22.941406 35.449219 20.773438 34.160156 19.394531 C 32.875 18.019531 30.703125 17.945312 29.328125 19.234375 L 12.3125 35.148438 C 11.621094 35.792969 11.230469 36.703125 11.230469 37.644531 C 11.230469 38.59375 11.621094 39.492188 12.3125 40.136719 L 29.328125 56.054688 C 29.984375 56.671875 30.828125 56.976562 31.660156 56.976562 C 32.574219 56.976562 33.484375 56.609375 34.15625 55.890625 C 35.449219 54.515625 35.375 52.351562 34 51.066406 Z M 34 51.066406 " fill-opacity="1" fill-rule="nonzero"/></g><g clip-path="url(#ddf3e93db7)"><g transform="matrix(1, 0, 0, 1, 339, 18)"><g clip-path="url(#06f3c3c8ac)"><g clip-path="url(#c35d069344)"><path fill="#ffffff" d="M 2 33.066406 L 4.335938 30.882812 L 16.339844 19.644531 L 4.335938 8.410156 L 2 6.230469 C 0.621094 4.941406 0.546875 2.773438 1.835938 1.394531 C 3.125 0.0195312 5.292969 -0.0546875 6.667969 1.234375 L 23.683594 17.148438 C 24.375 17.792969 24.765625 18.703125 24.765625 19.644531 C 24.765625 20.59375 24.375 21.492188 23.683594 22.136719 L 6.667969 38.054688 C 6.011719 38.671875 5.171875 38.976562 4.335938 38.976562 C 3.421875 38.976562 2.511719 38.609375 1.84375 37.890625 C 0.546875 36.515625 0.621094 34.351562 2 33.066406 Z M 2 33.066406 " fill-opacity="1" fill-rule="nonzero"/></g></g></g></g><g fill="#ffffff" fill-opacity="1"><g transform="translate(38.339397, 53.640279)"><g><path d="M 15.453125 -32.875 L 19.265625 -32.875 C 19.929688 -32.875 20.15625 -32.5625 19.9375 -31.9375 L 6.78125 2.59375 C 6.613281 3.03125 6.296875 3.25 5.828125 3.25 L 1.96875 3.25 C 1.3125 3.25 1.09375 2.929688 1.3125 2.296875 L 14.5 -32.21875 C 14.664062 -32.65625 14.984375 -32.875 15.453125 -32.875 Z M 15.453125 -32.875 "/></g></g></g><g fill="#ffffff" fill-opacity="1"><g transform="translate(59.950579, 53.640279)"><g><path d="M 18.9375 -26.953125 L 18.9375 -16.9375 C 18.9375 -14.195312 17.9375 -12.382812 15.9375 -11.5 L 18.78125 -0.734375 C 18.914062 -0.242188 18.722656 0 18.203125 0 L 13.9375 0 C 13.550781 0 13.316406 -0.191406 13.234375 -0.578125 L 10.484375 -11.015625 L 7.640625 -11.015625 L 7.640625 -0.65625 C 7.640625 -0.21875 7.421875 0 6.984375 0 L 2.71875 0 C 2.28125 0 2.0625 -0.21875 2.0625 -0.65625 L 2.0625 -32.21875 C 2.0625 -32.65625 2.28125 -32.875 2.71875 -32.875 L 13.03125 -32.875 C 14.96875 -32.875 16.4375 -32.375 17.4375 -31.375 C 18.4375 -30.375 18.9375 -28.898438 18.9375 -26.953125 Z M 7.640625 -16.4375 L 11.71875 -16.4375 C 12.8125 -16.4375 13.359375 -16.984375 13.359375 -18.078125 L 13.359375 -25.8125 C 13.359375 -26.90625 12.8125 -27.453125 11.71875 -27.453125 L 7.640625 -27.453125 Z M 7.640625 -16.4375 "/></g></g></g><g fill="#ffffff" fill-opacity="1"><g transform="translate(80.945473, 53.640279)"><g><path d="M 21.453125 0 L 17.46875 0 C 17.113281 0 16.894531 -0.191406 16.8125 -0.578125 L 15.5 -5.75 L 7.765625 -5.75 L 6.5 -0.578125 C 6.414062 -0.191406 6.191406 0 5.828125 0 L 1.8125 0 C 1.3125 0 1.132812 -0.234375 1.28125 -0.703125 L 8.09375 -28.1875 C 8.175781 -28.570312 8.410156 -28.765625 8.796875 -28.765625 L 14.5 -28.765625 C 14.882812 -28.765625 15.117188 -28.570312 15.203125 -28.1875 L 22.03125 -0.703125 C 22.164062 -0.234375 21.972656 0 21.453125 0 Z M 14.21875 -10.515625 L 11.625 -21.703125 L 9.046875 -10.515625 Z M 14.21875 -10.515625 "/></g></g></g><g fill="#ffffff" fill-opacity="1"><g transform="translate(103.419333, 53.640279)"><g><path d="M 19.234375 -28.765625 L 24.65625 -28.765625 C 25.207031 -28.765625 25.484375 -28.488281 25.484375 -27.9375 L 25.484375 -0.828125 C 25.484375 -0.273438 25.207031 0 24.65625 0 L 20.828125 0 C 20.285156 0 20.015625 -0.273438 20.015625 -0.828125 L 20.015625 -16.96875 L 19.71875 -16.96875 L 15.859375 -0.703125 C 15.722656 -0.234375 15.421875 0 14.953125 0 L 12.53125 0 C 12.0625 0 11.757812 -0.234375 11.625 -0.703125 L 7.765625 -16.96875 L 7.484375 -16.96875 L 7.484375 -0.828125 C 7.484375 -0.273438 7.207031 0 6.65625 0 L 2.875 0 C 2.332031 0 2.0625 -0.273438 2.0625 -0.828125 L 2.0625 -27.9375 C 2.0625 -28.488281 2.332031 -28.765625 2.875 -28.765625 L 8.296875 -28.765625 C 8.765625 -28.765625 9.066406 -28.53125 9.203125 -28.0625 L 13.765625 -9.734375 L 18.328125 -28.0625 C 18.460938 -28.53125 18.765625 -28.765625 19.234375 -28.765625 Z M 19.234375 -28.765625 "/></g></g></g><g fill="#ffffff" fill-opacity="1"><g transform="translate(130.946881, 53.640279)"><g><path d="M 7.96875 -28.765625 L 12.578125 -28.765625 C 14.523438 -28.765625 16 -28.265625 17 -27.265625 C 18 -26.265625 18.5 -24.789062 18.5 -22.84375 L 18.5 -20.140625 C 18.5 -19.703125 18.273438 -19.484375 17.828125 -19.484375 L 13.6875 -19.484375 C 13.25 -19.484375 13.03125 -19.703125 13.03125 -20.140625 L 13.03125 -21.859375 C 13.03125 -22.953125 12.484375 -23.5 11.390625 -23.5 L 9.125 -23.5 C 8.03125 -23.5 7.484375 -22.953125 7.484375 -21.859375 L 7.484375 -18.375 L 17.421875 -15.15625 C 18.140625 -14.914062 18.5 -14.410156 18.5 -13.640625 L 18.5 -5.921875 C 18.5 -4.003906 18 -2.535156 17 -1.515625 C 16 -0.503906 14.523438 0 12.578125 0 L 7.96875 0 C 6.050781 0 4.585938 -0.503906 3.578125 -1.515625 C 2.566406 -2.535156 2.0625 -4.003906 2.0625 -5.921875 L 2.0625 -8.59375 C 2.0625 -9.03125 2.28125 -9.25 2.71875 -9.25 L 6.859375 -9.25 C 7.296875 -9.25 7.515625 -9.03125 7.515625 -8.59375 L 7.515625 -6.859375 C 7.515625 -5.765625 8.0625 -5.21875 9.15625 -5.21875 L 11.390625 -5.21875 C 12.484375 -5.21875 13.03125 -5.765625 13.03125 -6.859375 L 13.03125 -11.015625 L 3.171875 -14.21875 C 2.429688 -14.46875 2.0625 -14.972656 2.0625 -15.734375 L 2.0625 -22.84375 C 2.0625 -24.789062 2.566406 -26.265625 3.578125 -27.265625 C 4.585938 -28.265625 6.050781 -28.765625 7.96875 -28.765625 Z M 7.96875 -28.765625 "/></g></g></g><g fill="#ffffff" fill-opacity="1"><g transform="translate(151.489825, 53.640279)"><g><path d="M 18.453125 -28.109375 L 18.453125 -24 C 18.453125 -23.53125 18.234375 -23.296875 17.796875 -23.296875 L 7.640625 -23.296875 L 7.640625 -16.96875 L 15.375 -16.96875 C 15.8125 -16.96875 16.03125 -16.734375 16.03125 -16.265625 L 16.03125 -12.203125 C 16.03125 -11.734375 15.8125 -11.5 15.375 -11.5 L 7.640625 -11.5 L 7.640625 -5.421875 L 17.796875 -5.421875 C 18.234375 -5.421875 18.453125 -5.203125 18.453125 -4.765625 L 18.453125 -0.65625 C 18.453125 -0.21875 18.234375 0 17.796875 0 L 2.671875 0 C 2.265625 0 2.0625 -0.21875 2.0625 -0.65625 L 2.0625 -28.109375 C 2.0625 -28.546875 2.265625 -28.765625 2.671875 -28.765625 L 17.796875 -28.765625 C 18.234375 -28.765625 18.453125 -28.546875 18.453125 -28.109375 Z M 18.453125 -28.109375 "/></g></g></g><g fill="#ffffff" fill-opacity="1"><g transform="translate(170.758904, 53.640279)"><g><path d="M 7.96875 -28.765625 L 12.578125 -28.765625 C 14.523438 -28.765625 16 -28.265625 17 -27.265625 C 18 -26.265625 18.5 -24.789062 18.5 -22.84375 L 18.5 -20.140625 C 18.5 -19.703125 18.273438 -19.484375 17.828125 -19.484375 L 13.6875 -19.484375 C 13.25 -19.484375 13.03125 -19.703125 13.03125 -20.140625 L 13.03125 -21.859375 C 13.03125 -22.953125 12.484375 -23.5 11.390625 -23.5 L 9.125 -23.5 C 8.03125 -23.5 7.484375 -22.953125 7.484375 -21.859375 L 7.484375 -18.375 L 17.421875 -15.15625 C 18.140625 -14.914062 18.5 -14.410156 18.5 -13.640625 L 18.5 -5.921875 C 18.5 -4.003906 18 -2.535156 17 -1.515625 C 16 -0.503906 14.523438 0 12.578125 0 L 7.96875 0 C 6.050781 0 4.585938 -0.503906 3.578125 -1.515625 C 2.566406 -2.535156 2.0625 -4.003906 2.0625 -5.921875 L 2.0625 -8.59375 C 2.0625 -9.03125 2.28125 -9.25 2.71875 -9.25 L 6.859375 -9.25 C 7.296875 -9.25 7.515625 -9.03125 7.515625 -8.59375 L 7.515625 -6.859375 C 7.515625 -5.765625 8.0625 -5.21875 9.15625 -5.21875 L 11.390625 -5.21875 C 12.484375 -5.21875 13.03125 -5.765625 13.03125 -6.859375 L 13.03125 -11.015625 L 3.171875 -14.21875 C 2.429688 -14.46875 2.0625 -14.972656 2.0625 -15.734375 L 2.0625 -22.84375 C 2.0625 -24.789062 2.566406 -26.265625 3.578125 -27.265625 C 4.585938 -28.265625 6.050781 -28.765625 7.96875 -28.765625 Z M 7.96875 -28.765625 "/></g></g></g><g fill="#000000" fill-opacity="1"><g transform="translate(191.304229, 53.640279)"><g/></g></g><g fill="#9df856" fill-opacity="1"><g transform="translate(201.581575, 53.640279)"><g><path d="M 18.53125 -26.953125 L 18.53125 -22.515625 C 18.53125 -22.078125 18.3125 -21.859375 17.875 -21.859375 L 13.765625 -21.859375 C 13.328125 -21.859375 13.109375 -22.078125 13.109375 -22.515625 L 13.109375 -25.8125 C 13.109375 -26.90625 12.5625 -27.453125 11.46875 -27.453125 L 9.328125 -27.453125 C 8.234375 -27.453125 7.6875 -26.90625 7.6875 -25.8125 L 7.6875 -7.0625 C 7.6875 -5.96875 8.234375 -5.421875 9.328125 -5.421875 L 11.46875 -5.421875 C 12.5625 -5.421875 13.109375 -5.96875 13.109375 -7.0625 L 13.109375 -10.359375 C 13.109375 -10.796875 13.328125 -11.015625 13.765625 -11.015625 L 17.875 -11.015625 C 18.3125 -11.015625 18.53125 -10.796875 18.53125 -10.359375 L 18.53125 -5.921875 C 18.53125 -4.003906 18.023438 -2.535156 17.015625 -1.515625 C 16.003906 -0.503906 14.535156 0 12.609375 0 L 8.015625 0 C 6.097656 0 4.625 -0.503906 3.59375 -1.515625 C 2.570312 -2.535156 2.0625 -4.003906 2.0625 -5.921875 L 2.0625 -26.953125 C 2.0625 -28.898438 2.570312 -30.375 3.59375 -31.375 C 4.625 -32.375 6.097656 -32.875 8.015625 -32.875 L 12.609375 -32.875 C 14.535156 -32.875 16.003906 -32.375 17.015625 -31.375 C 18.023438 -30.375 18.53125 -28.898438 18.53125 -26.953125 Z M 18.53125 -26.953125 "/></g></g></g><g fill="#9df856" fill-opacity="1"><g transform="translate(222.165604, 53.640279)"><g><path d="M 13.890625 -28.765625 L 17.671875 -28.765625 C 17.890625 -28.765625 18.082031 -28.679688 18.25 -28.515625 C 18.414062 -28.347656 18.5 -28.15625 18.5 -27.9375 L 18.5 -5.921875 C 18.5 -4.003906 18 -2.535156 17 -1.515625 C 16 -0.503906 14.523438 0 12.578125 0 L 7.96875 0 C 6.050781 0 4.585938 -0.503906 3.578125 -1.515625 C 2.566406 -2.535156 2.0625 -4.003906 2.0625 -5.921875 L 2.0625 -27.9375 C 2.0625 -28.15625 2.140625 -28.347656 2.296875 -28.515625 C 2.460938 -28.679688 2.65625 -28.765625 2.875 -28.765625 L 6.828125 -28.765625 C 7.046875 -28.765625 7.234375 -28.679688 7.390625 -28.515625 C 7.554688 -28.347656 7.640625 -28.15625 7.640625 -27.9375 L 7.640625 -7.0625 C 7.640625 -5.96875 8.1875 -5.421875 9.28125 -5.421875 L 11.421875 -5.421875 C 12.515625 -5.421875 13.0625 -5.96875 13.0625 -7.0625 L 13.0625 -27.9375 C 13.0625 -28.15625 13.144531 -28.347656 13.3125 -28.515625 C 13.476562 -28.679688 13.671875 -28.765625 13.890625 -28.765625 Z M 13.890625 -28.765625 "/></g></g></g><g fill="#9df856" fill-opacity="1"><g transform="translate(242.708548, 53.640279)"><g><path d="M 18.53125 -22.84375 L 18.53125 -17.296875 C 18.53125 -16.535156 18.28125 -15.894531 17.78125 -15.375 C 17.289062 -14.851562 16.675781 -14.523438 15.9375 -14.390625 L 15.9375 -14.296875 C 16.675781 -14.191406 17.289062 -13.867188 17.78125 -13.328125 C 18.28125 -12.796875 18.53125 -12.148438 18.53125 -11.390625 L 18.53125 -5.921875 C 18.53125 -4.003906 18.023438 -2.535156 17.015625 -1.515625 C 16.003906 -0.503906 14.523438 0 12.578125 0 L 2.71875 0 C 2.28125 0 2.0625 -0.21875 2.0625 -0.65625 L 2.0625 -28.109375 C 2.0625 -28.546875 2.28125 -28.765625 2.71875 -28.765625 L 12.578125 -28.765625 C 14.523438 -28.765625 16.003906 -28.265625 17.015625 -27.265625 C 18.023438 -26.265625 18.53125 -24.789062 18.53125 -22.84375 Z M 13.3125 -18.65625 L 13.3125 -21.9375 C 13.3125 -23.039062 12.765625 -23.59375 11.671875 -23.59375 L 7.15625 -23.59375 L 7.15625 -17.046875 L 11.671875 -17.046875 C 12.765625 -17.046875 13.3125 -17.582031 13.3125 -18.65625 Z M 13.3125 -6.828125 L 13.3125 -9.984375 C 13.3125 -11.078125 12.765625 -11.625 11.671875 -11.625 L 7.15625 -11.625 L 7.15625 -5.171875 L 11.671875 -5.171875 C 12.765625 -5.171875 13.3125 -5.722656 13.3125 -6.828125 Z M 13.3125 -6.828125 "/></g></g></g><g fill="#9df856" fill-opacity="1"><g transform="translate(263.292577, 53.640279)"><g><path d="M 2.71875 0 L 6.984375 0 C 7.421875 0 7.640625 -0.21875 7.640625 -0.65625 L 7.640625 -28.109375 C 7.640625 -28.546875 7.421875 -28.765625 6.984375 -28.765625 L 2.71875 -28.765625 C 2.28125 -28.765625 2.0625 -28.546875 2.0625 -28.109375 L 2.0625 -0.65625 C 2.0625 -0.21875 2.28125 0 2.71875 0 Z M 2.71875 0 "/></g></g></g><g fill="#9df856" fill-opacity="1"><g transform="translate(272.988846, 53.640279)"><g><path d="M 2.0625 -0.65625 L 2.0625 -28.109375 C 2.0625 -28.546875 2.28125 -28.765625 2.71875 -28.765625 L 12.578125 -28.765625 C 14.523438 -28.765625 16 -28.253906 17 -27.234375 C 18 -26.222656 18.5 -24.75 18.5 -22.8125 L 18.5 -5.921875 C 18.5 -4.003906 18 -2.535156 17 -1.515625 C 16 -0.503906 14.523438 0 12.578125 0 L 2.71875 0 C 2.28125 0 2.0625 -0.21875 2.0625 -0.65625 Z M 7.640625 -5.421875 L 11.421875 -5.421875 C 12.515625 -5.421875 13.0625 -5.96875 13.0625 -7.0625 L 13.0625 -21.65625 C 13.0625 -22.78125 12.515625 -23.34375 11.421875 -23.34375 L 7.640625 -23.34375 Z M 7.640625 -5.421875 "/></g></g></g><g fill="#9df856" fill-opacity="1"><g transform="translate(293.53179, 53.640279)"><g><path d="M 18.453125 -28.109375 L 18.453125 -24 C 18.453125 -23.53125 18.234375 -23.296875 17.796875 -23.296875 L 7.640625 -23.296875 L 7.640625 -16.96875 L 15.375 -16.96875 C 15.8125 -16.96875 16.03125 -16.734375 16.03125 -16.265625 L 16.03125 -12.203125 C 16.03125 -11.734375 15.8125 -11.5 15.375 -11.5 L 7.640625 -11.5 L 7.640625 -5.421875 L 17.796875 -5.421875 C 18.234375 -5.421875 18.453125 -5.203125 18.453125 -4.765625 L 18.453125 -0.65625 C 18.453125 -0.21875 18.234375 0 17.796875 0 L 2.671875 0 C 2.265625 0 2.0625 -0.21875 2.0625 -0.65625 L 2.0625 -28.109375 C 2.0625 -28.546875 2.265625 -28.765625 2.671875 -28.765625 L 17.796875 -28.765625 C 18.234375 -28.765625 18.453125 -28.546875 18.453125 -28.109375 Z M 18.453125 -28.109375 "/></g></g></g><g fill="#9df856" fill-opacity="1"><g transform="translate(312.800869, 53.640279)"><g><path d="M 7.96875 -28.765625 L 12.578125 -28.765625 C 14.523438 -28.765625 16 -28.265625 17 -27.265625 C 18 -26.265625 18.5 -24.789062 18.5 -22.84375 L 18.5 -20.140625 C 18.5 -19.703125 18.273438 -19.484375 17.828125 -19.484375 L 13.6875 -19.484375 C 13.25 -19.484375 13.03125 -19.703125 13.03125 -20.140625 L 13.03125 -21.859375 C 13.03125 -22.953125 12.484375 -23.5 11.390625 -23.5 L 9.125 -23.5 C 8.03125 -23.5 7.484375 -22.953125 7.484375 -21.859375 L 7.484375 -18.375 L 17.421875 -15.15625 C 18.140625 -14.914062 18.5 -14.410156 18.5 -13.640625 L 18.5 -5.921875 C 18.5 -4.003906 18 -2.535156 17 -1.515625 C 16 -0.503906 14.523438 0 12.578125 0 L 7.96875 0 C 6.050781 0 4.585938 -0.503906 3.578125 -1.515625 C 2.566406 -2.535156 2.0625 -4.003906 2.0625 -5.921875 L 2.0625 -8.59375 C 2.0625 -9.03125 2.28125 -9.25 2.71875 -9.25 L 6.859375 -9.25 C 7.296875 -9.25 7.515625 -9.03125 7.515625 -8.59375 L 7.515625 -6.859375 C 7.515625 -5.765625 8.0625 -5.21875 9.15625 -5.21875 L 11.390625 -5.21875 C 12.484375 -5.21875 13.03125 -5.765625 13.03125 -6.859375 L 13.03125 -11.015625 L 3.171875 -14.21875 C 2.429688 -14.46875 2.0625 -14.972656 2.0625 -15.734375 L 2.0625 -22.84375 C 2.0625 -24.789062 2.566406 -26.265625 3.578125 -27.265625 C 4.585938 -28.265625 6.050781 -28.765625 7.96875 -28.765625 Z M 7.96875 -28.765625 "/></g></g></g><g clip-path="url(#2c2e87168e)"><g clip-path="url(#3943a61e32)"><g clip-path="url(#2e44d8e438)"><g clip-path="url(#050f35d8c3)"><path fill="#000000" d="M 324.78125 47.675781 L 328.28125 68.007812 L 329.449219 67.804688 L 329.246094 66.609375 L 330.414062 66.40625 L 330.210938 65.210938 L 329.039062 65.414062 L 326.363281 49.863281 L 327.53125 49.664062 L 327.328125 48.46875 L 326.15625 48.667969 L 325.949219 47.472656 L 324.78125 47.671875 Z M 327.53125 49.664062 L 327.738281 50.859375 L 328.90625 50.65625 L 328.703125 49.460938 Z M 328.90625 50.65625 L 329.113281 51.855469 L 330.285156 51.652344 L 330.078125 50.457031 Z M 330.285156 51.652344 L 330.488281 52.847656 L 331.660156 52.648438 L 331.453125 51.449219 Z M 331.660156 52.648438 L 331.867188 53.84375 L 333.035156 53.640625 L 332.832031 52.445312 Z M 333.035156 53.640625 L 333.242188 54.839844 L 334.414062 54.636719 L 334.207031 53.441406 Z M 334.414062 54.636719 L 334.617188 55.832031 L 335.789062 55.632812 L 335.582031 54.433594 Z M 335.789062 55.632812 L 335.996094 56.828125 L 337.164062 56.625 L 336.960938 55.429688 Z M 337.164062 56.625 L 337.371094 57.820312 L 338.542969 57.621094 L 338.335938 56.421875 Z M 338.542969 57.621094 L 338.746094 58.816406 L 335.238281 59.421875 L 335.855469 63.007812 L 337.023438 62.808594 L 336.613281 60.414062 L 341.292969 59.609375 L 341.089844 58.414062 L 339.917969 58.613281 L 339.710938 57.417969 Z M 337.023438 62.808594 L 337.4375 65.199219 L 338.605469 64.996094 L 338.195312 62.605469 Z M 338.605469 64.996094 L 339.019531 67.390625 L 340.1875 67.1875 L 339.777344 64.796875 Z M 340.1875 67.1875 L 340.601562 69.582031 L 341.769531 69.378906 L 341.359375 66.988281 Z M 340.601562 69.582031 L 338.261719 69.984375 L 338.464844 71.179688 L 340.804688 70.777344 Z M 338.261719 69.984375 L 337.847656 67.59375 L 336.679688 67.792969 L 337.089844 70.1875 Z M 336.679688 67.792969 L 336.265625 65.402344 L 335.097656 65.601562 L 335.507812 67.996094 Z M 335.097656 65.601562 L 334.683594 63.210938 L 333.515625 63.414062 L 333.925781 65.804688 Z M 333.515625 63.414062 L 333.101562 61.019531 L 331.929688 61.222656 L 332.136719 62.417969 L 330.96875 62.621094 L 331.171875 63.816406 Z M 331.171875 63.816406 L 330.003906 64.015625 L 330.210938 65.214844 L 331.378906 65.011719 Z M 331.171875 63.816406 " fill-opacity="1" fill-rule="evenodd"/></g></g></g></g><g clip-path="url(#356f0f4532)"><g clip-path="url(#f305094f15)"><g clip-path="url(#2d0b7bddbf)"><g clip-path="url(#53a806faaf)"><path fill="#ffffff" d="M 326.363281 49.863281 L 329.039062 65.414062 L 330.210938 65.214844 L 330.003906 64.015625 L 331.171875 63.816406 L 330.96875 62.617188 L 332.136719 62.417969 L 331.929688 61.222656 L 333.101562 61.019531 L 333.515625 63.414062 L 334.683594 63.210938 L 335.097656 65.601562 L 336.265625 65.402344 L 336.679688 67.792969 L 337.847656 67.589844 L 338.261719 69.984375 L 340.601562 69.582031 L 340.1875 67.1875 L 339.019531 67.390625 L 338.605469 64.996094 L 337.4375 65.199219 L 337.023438 62.808594 L 335.855469 63.007812 L 335.238281 59.421875 L 338.746094 58.816406 L 338.542969 57.621094 L 337.371094 57.820312 L 337.164062 56.625 L 335.996094 56.828125 L 335.789062 55.632812 L 334.617188 55.832031 L 334.414062 54.636719 L 333.242188 54.839844 L 333.035156 53.640625 L 331.867188 53.84375 L 331.660156 52.648438 L 330.488281 52.847656 L 330.285156 51.652344 L 329.113281 51.855469 L 328.90625 50.65625 L 327.738281 50.859375 L 327.53125 49.664062 Z M 326.363281 49.863281 " fill-opacity="1" fill-rule="nonzero"/></g></g></g></g></svg>