<svg xmlns="http://www.w3.org/2000/svg" xmlns:xlink="http://www.w3.org/1999/xlink" width="500" zoomAndPan="magnify" viewBox="0 0 375 74.999997" height="100" preserveAspectRatio="xMidYMid meet" version="1.0"><defs><g/><clipPath id="bd102defb0"><path d="M 0.230469 6 L 25 6 L 25 46 L 0.230469 46 Z M 0.230469 6 " clip-rule="nonzero"/></clipPath><clipPath id="0fbe94fc9c"><path d="M 326.984375 3.972656 L 352.417969 3.972656 L 352.417969 50.734375 L 326.984375 50.734375 Z M 326.984375 3.972656 " clip-rule="nonzero"/></clipPath><clipPath id="10b51b3e93"><path d="M 2 3 L 26.417969 3 L 26.417969 43 L 2 43 Z M 2 3 " clip-rule="nonzero"/></clipPath><clipPath id="990b86d4ea"><rect x="0" width="27" y="0" height="48"/></clipPath><clipPath id="93f02ef102"><path d="M 26 0.238281 L 324 0.238281 L 324 50 L 26 50 Z M 26 0.238281 " clip-rule="nonzero"/></clipPath><clipPath id="c24bd9416f"><rect x="0" width="298" y="0" height="50"/></clipPath><clipPath id="252ead5ccc"><path d="M 313 35 L 332 35 L 332 60 L 313 60 Z M 313 35 " clip-rule="nonzero"/></clipPath><clipPath id="d59364e85f"><path d="M 313.777344 35.667969 L 328.332031 33.164062 L 332.644531 58.226562 L 318.09375 60.730469 Z M 313.777344 35.667969 " clip-rule="nonzero"/></clipPath><clipPath id="a1fa944dcc"><path d="M 313.777344 35.667969 L 328.332031 33.164062 L 332.644531 58.226562 L 318.09375 60.730469 Z M 313.777344 35.667969 " clip-rule="nonzero"/></clipPath><clipPath id="543bf8e125"><path d="M 313.777344 35.667969 L 328.332031 33.164062 L 332.644531 58.226562 L 318.09375 60.730469 Z M 313.777344 35.667969 " clip-rule="nonzero"/></clipPath><clipPath id="4117d62029"><path d="M 315 37 L 331 37 L 331 58 L 315 58 Z M 315 37 " clip-rule="nonzero"/></clipPath><clipPath id="65c41f2ce7"><path d="M 313.777344 35.667969 L 328.332031 33.164062 L 332.644531 58.226562 L 318.09375 60.730469 Z M 313.777344 35.667969 " clip-rule="nonzero"/></clipPath><clipPath id="215ce5d46a"><path d="M 313.777344 35.667969 L 328.332031 33.164062 L 332.644531 58.226562 L 318.09375 60.730469 Z M 313.777344 35.667969 " clip-rule="nonzero"/></clipPath><clipPath id="ce3859beaf"><path d="M 313.777344 35.667969 L 328.332031 33.164062 L 332.644531 58.226562 L 318.09375 60.730469 Z M 313.777344 35.667969 " clip-rule="nonzero"/></clipPath><clipPath id="f42c9d1938"><rect x="0" width="353" y="0" height="62"/></clipPath></defs><g transform="matrix(1, 0, 0, 1, 11, 12)"><g clip-path="url(#f42c9d1938)"><g clip-path="url(#bd102defb0)"><path fill="#231f20" d="M 23.109375 39.191406 L 20.757812 37 L 8.695312 25.722656 L 20.757812 14.453125 L 23.109375 12.261719 C 24.492188 10.96875 24.566406 8.792969 23.269531 7.410156 C 21.976562 6.03125 19.796875 5.957031 18.414062 7.25 L 1.320312 23.21875 C 0.625 23.867188 0.230469 24.777344 0.230469 25.722656 C 0.230469 26.675781 0.625 27.582031 1.320312 28.226562 L 18.414062 44.199219 C 19.074219 44.816406 19.921875 45.125 20.757812 45.125 C 21.675781 45.125 22.589844 44.757812 23.265625 44.035156 C 24.566406 42.65625 24.492188 40.484375 23.109375 39.191406 Z M 23.109375 39.191406 " fill-opacity="1" fill-rule="nonzero"/></g><g clip-path="url(#0fbe94fc9c)"><g transform="matrix(1, 0, 0, 1, 326, 3)"><g clip-path="url(#990b86d4ea)"><g clip-path="url(#10b51b3e93)"><path fill="#231f20" d="M 3.886719 36.191406 L 6.234375 34 L 18.296875 22.722656 L 6.234375 11.453125 L 3.886719 9.261719 C 2.503906 7.96875 2.429688 5.792969 3.722656 4.410156 C 5.015625 3.03125 7.195312 2.957031 8.578125 4.25 L 17.125 12.234375 L 25.675781 20.21875 C 26.371094 20.867188 26.765625 21.777344 26.765625 22.722656 C 26.765625 23.675781 26.371094 24.582031 25.675781 25.226562 L 8.578125 41.199219 C 7.917969 41.816406 7.074219 42.125 6.234375 42.125 C 5.316406 42.125 4.402344 41.757812 3.730469 41.035156 C 2.429688 39.65625 2.503906 37.484375 3.886719 36.191406 Z M 3.886719 36.191406 " fill-opacity="1" fill-rule="nonzero"/></g></g></g></g><g clip-path="url(#93f02ef102)"><g transform="matrix(1, 0, 0, 1, 26, -0.000000000000001776)"><g clip-path="url(#c24bd9416f)"><g fill="#000000" fill-opacity="1"><g transform="translate(1.338395, 40.673654)"><g><path d="M 15.453125 -32.875 L 19.265625 -32.875 C 19.929688 -32.875 20.15625 -32.5625 19.9375 -31.9375 L 6.78125 2.59375 C 6.613281 3.03125 6.296875 3.25 5.828125 3.25 L 1.96875 3.25 C 1.3125 3.25 1.09375 2.929688 1.3125 2.296875 L 14.5 -32.21875 C 14.664062 -32.65625 14.984375 -32.875 15.453125 -32.875 Z M 15.453125 -32.875 "/></g></g></g><g fill="#231f20" fill-opacity="1"><g transform="translate(22.953735, 40.673654)"><g><path d="M 18.9375 -26.953125 L 18.9375 -16.9375 C 18.9375 -14.195312 17.9375 -12.382812 15.9375 -11.5 L 18.78125 -0.734375 C 18.914062 -0.242188 18.722656 0 18.203125 0 L 13.9375 0 C 13.550781 0 13.316406 -0.191406 13.234375 -0.578125 L 10.484375 -11.015625 L 7.640625 -11.015625 L 7.640625 -0.65625 C 7.640625 -0.21875 7.421875 0 6.984375 0 L 2.71875 0 C 2.28125 0 2.0625 -0.21875 2.0625 -0.65625 L 2.0625 -32.21875 C 2.0625 -32.65625 2.28125 -32.875 2.71875 -32.875 L 13.03125 -32.875 C 14.96875 -32.875 16.4375 -32.375 17.4375 -31.375 C 18.4375 -30.375 18.9375 -28.898438 18.9375 -26.953125 Z M 7.640625 -16.4375 L 11.71875 -16.4375 C 12.8125 -16.4375 13.359375 -16.984375 13.359375 -18.078125 L 13.359375 -25.8125 C 13.359375 -26.90625 12.8125 -27.453125 11.71875 -27.453125 L 7.640625 -27.453125 Z M 7.640625 -16.4375 "/></g></g></g><g fill="#231f20" fill-opacity="1"><g transform="translate(43.948814, 40.673654)"><g><path d="M 21.453125 0 L 17.46875 0 C 17.113281 0 16.894531 -0.191406 16.8125 -0.578125 L 15.5 -5.75 L 7.765625 -5.75 L 6.5 -0.578125 C 6.414062 -0.191406 6.191406 0 5.828125 0 L 1.8125 0 C 1.3125 0 1.132812 -0.234375 1.28125 -0.703125 L 8.09375 -28.1875 C 8.175781 -28.570312 8.410156 -28.765625 8.796875 -28.765625 L 14.5 -28.765625 C 14.882812 -28.765625 15.117188 -28.570312 15.203125 -28.1875 L 22.03125 -0.703125 C 22.164062 -0.234375 21.972656 0 21.453125 0 Z M 14.21875 -10.515625 L 11.625 -21.703125 L 9.046875 -10.515625 Z M 14.21875 -10.515625 "/></g></g></g><g fill="#231f20" fill-opacity="1"><g transform="translate(66.422915, 40.673654)"><g><path d="M 19.234375 -28.765625 L 24.65625 -28.765625 C 25.207031 -28.765625 25.484375 -28.488281 25.484375 -27.9375 L 25.484375 -0.828125 C 25.484375 -0.273438 25.207031 0 24.65625 0 L 20.828125 0 C 20.285156 0 20.015625 -0.273438 20.015625 -0.828125 L 20.015625 -16.96875 L 19.71875 -16.96875 L 15.859375 -0.703125 C 15.722656 -0.234375 15.421875 0 14.953125 0 L 12.53125 0 C 12.0625 0 11.757812 -0.234375 11.625 -0.703125 L 7.765625 -16.96875 L 7.484375 -16.96875 L 7.484375 -0.828125 C 7.484375 -0.273438 7.207031 0 6.65625 0 L 2.875 0 C 2.332031 0 2.0625 -0.273438 2.0625 -0.828125 L 2.0625 -27.9375 C 2.0625 -28.488281 2.332031 -28.765625 2.875 -28.765625 L 8.296875 -28.765625 C 8.765625 -28.765625 9.066406 -28.53125 9.203125 -28.0625 L 13.765625 -9.734375 L 18.328125 -28.0625 C 18.460938 -28.53125 18.765625 -28.765625 19.234375 -28.765625 Z M 19.234375 -28.765625 "/></g></g></g><g fill="#231f20" fill-opacity="1"><g transform="translate(93.950714, 40.673654)"><g><path d="M 7.96875 -28.765625 L 12.578125 -28.765625 C 14.523438 -28.765625 16 -28.265625 17 -27.265625 C 18 -26.265625 18.5 -24.789062 18.5 -22.84375 L 18.5 -20.140625 C 18.5 -19.703125 18.273438 -19.484375 17.828125 -19.484375 L 13.6875 -19.484375 C 13.25 -19.484375 13.03125 -19.703125 13.03125 -20.140625 L 13.03125 -21.859375 C 13.03125 -22.953125 12.484375 -23.5 11.390625 -23.5 L 9.125 -23.5 C 8.03125 -23.5 7.484375 -22.953125 7.484375 -21.859375 L 7.484375 -18.375 L 17.421875 -15.15625 C 18.140625 -14.914062 18.5 -14.410156 18.5 -13.640625 L 18.5 -5.921875 C 18.5 -4.003906 18 -2.535156 17 -1.515625 C 16 -0.503906 14.523438 0 12.578125 0 L 7.96875 0 C 6.050781 0 4.585938 -0.503906 3.578125 -1.515625 C 2.566406 -2.535156 2.0625 -4.003906 2.0625 -5.921875 L 2.0625 -8.59375 C 2.0625 -9.03125 2.28125 -9.25 2.71875 -9.25 L 6.859375 -9.25 C 7.296875 -9.25 7.515625 -9.03125 7.515625 -8.59375 L 7.515625 -6.859375 C 7.515625 -5.765625 8.0625 -5.21875 9.15625 -5.21875 L 11.390625 -5.21875 C 12.484375 -5.21875 13.03125 -5.765625 13.03125 -6.859375 L 13.03125 -11.015625 L 3.171875 -14.21875 C 2.429688 -14.46875 2.0625 -14.972656 2.0625 -15.734375 L 2.0625 -22.84375 C 2.0625 -24.789062 2.566406 -26.265625 3.578125 -27.265625 C 4.585938 -28.265625 6.050781 -28.765625 7.96875 -28.765625 Z M 7.96875 -28.765625 "/></g></g></g><g fill="#231f20" fill-opacity="1"><g transform="translate(114.493841, 40.673654)"><g><path d="M 18.453125 -28.109375 L 18.453125 -24 C 18.453125 -23.53125 18.234375 -23.296875 17.796875 -23.296875 L 7.640625 -23.296875 L 7.640625 -16.96875 L 15.375 -16.96875 C 15.8125 -16.96875 16.03125 -16.734375 16.03125 -16.265625 L 16.03125 -12.203125 C 16.03125 -11.734375 15.8125 -11.5 15.375 -11.5 L 7.640625 -11.5 L 7.640625 -5.421875 L 17.796875 -5.421875 C 18.234375 -5.421875 18.453125 -5.203125 18.453125 -4.765625 L 18.453125 -0.65625 C 18.453125 -0.21875 18.234375 0 17.796875 0 L 2.671875 0 C 2.265625 0 2.0625 -0.21875 2.0625 -0.65625 L 2.0625 -28.109375 C 2.0625 -28.546875 2.265625 -28.765625 2.671875 -28.765625 L 17.796875 -28.765625 C 18.234375 -28.765625 18.453125 -28.546875 18.453125 -28.109375 Z M 18.453125 -28.109375 "/></g></g></g><g fill="#231f20" fill-opacity="1"><g transform="translate(133.763166, 40.673654)"><g><path d="M 7.96875 -28.765625 L 12.578125 -28.765625 C 14.523438 -28.765625 16 -28.265625 17 -27.265625 C 18 -26.265625 18.5 -24.789062 18.5 -22.84375 L 18.5 -20.140625 C 18.5 -19.703125 18.273438 -19.484375 17.828125 -19.484375 L 13.6875 -19.484375 C 13.25 -19.484375 13.03125 -19.703125 13.03125 -20.140625 L 13.03125 -21.859375 C 13.03125 -22.953125 12.484375 -23.5 11.390625 -23.5 L 9.125 -23.5 C 8.03125 -23.5 7.484375 -22.953125 7.484375 -21.859375 L 7.484375 -18.375 L 17.421875 -15.15625 C 18.140625 -14.914062 18.5 -14.410156 18.5 -13.640625 L 18.5 -5.921875 C 18.5 -4.003906 18 -2.535156 17 -1.515625 C 16 -0.503906 14.523438 0 12.578125 0 L 7.96875 0 C 6.050781 0 4.585938 -0.503906 3.578125 -1.515625 C 2.566406 -2.535156 2.0625 -4.003906 2.0625 -5.921875 L 2.0625 -8.59375 C 2.0625 -9.03125 2.28125 -9.25 2.71875 -9.25 L 6.859375 -9.25 C 7.296875 -9.25 7.515625 -9.03125 7.515625 -8.59375 L 7.515625 -6.859375 C 7.515625 -5.765625 8.0625 -5.21875 9.15625 -5.21875 L 11.390625 -5.21875 C 12.484375 -5.21875 13.03125 -5.765625 13.03125 -6.859375 L 13.03125 -11.015625 L 3.171875 -14.21875 C 2.429688 -14.46875 2.0625 -14.972656 2.0625 -15.734375 L 2.0625 -22.84375 C 2.0625 -24.789062 2.566406 -26.265625 3.578125 -27.265625 C 4.585938 -28.265625 6.050781 -28.765625 7.96875 -28.765625 Z M 7.96875 -28.765625 "/></g></g></g><g fill="#000000" fill-opacity="1"><g transform="translate(154.30849, 40.673654)"><g/></g></g><g fill="#9df856" fill-opacity="1"><g transform="translate(164.582943, 40.673654)"><g><path d="M 18.53125 -26.953125 L 18.53125 -22.515625 C 18.53125 -22.078125 18.3125 -21.859375 17.875 -21.859375 L 13.765625 -21.859375 C 13.328125 -21.859375 13.109375 -22.078125 13.109375 -22.515625 L 13.109375 -25.8125 C 13.109375 -26.90625 12.5625 -27.453125 11.46875 -27.453125 L 9.328125 -27.453125 C 8.234375 -27.453125 7.6875 -26.90625 7.6875 -25.8125 L 7.6875 -7.0625 C 7.6875 -5.96875 8.234375 -5.421875 9.328125 -5.421875 L 11.46875 -5.421875 C 12.5625 -5.421875 13.109375 -5.96875 13.109375 -7.0625 L 13.109375 -10.359375 C 13.109375 -10.796875 13.328125 -11.015625 13.765625 -11.015625 L 17.875 -11.015625 C 18.3125 -11.015625 18.53125 -10.796875 18.53125 -10.359375 L 18.53125 -5.921875 C 18.53125 -4.003906 18.023438 -2.535156 17.015625 -1.515625 C 16.003906 -0.503906 14.535156 0 12.609375 0 L 8.015625 0 C 6.097656 0 4.625 -0.503906 3.59375 -1.515625 C 2.570312 -2.535156 2.0625 -4.003906 2.0625 -5.921875 L 2.0625 -26.953125 C 2.0625 -28.898438 2.570312 -30.375 3.59375 -31.375 C 4.625 -32.375 6.097656 -32.875 8.015625 -32.875 L 12.609375 -32.875 C 14.535156 -32.875 16.003906 -32.375 17.015625 -31.375 C 18.023438 -30.375 18.53125 -28.898438 18.53125 -26.953125 Z M 18.53125 -26.953125 "/></g></g></g><g fill="#9df856" fill-opacity="1"><g transform="translate(185.167157, 40.673654)"><g><path d="M 13.890625 -28.765625 L 17.671875 -28.765625 C 17.890625 -28.765625 18.082031 -28.679688 18.25 -28.515625 C 18.414062 -28.347656 18.5 -28.15625 18.5 -27.9375 L 18.5 -5.921875 C 18.5 -4.003906 18 -2.535156 17 -1.515625 C 16 -0.503906 14.523438 0 12.578125 0 L 7.96875 0 C 6.050781 0 4.585938 -0.503906 3.578125 -1.515625 C 2.566406 -2.535156 2.0625 -4.003906 2.0625 -5.921875 L 2.0625 -27.9375 C 2.0625 -28.15625 2.140625 -28.347656 2.296875 -28.515625 C 2.460938 -28.679688 2.65625 -28.765625 2.875 -28.765625 L 6.828125 -28.765625 C 7.046875 -28.765625 7.234375 -28.679688 7.390625 -28.515625 C 7.554688 -28.347656 7.640625 -28.15625 7.640625 -27.9375 L 7.640625 -7.0625 C 7.640625 -5.96875 8.1875 -5.421875 9.28125 -5.421875 L 11.421875 -5.421875 C 12.515625 -5.421875 13.0625 -5.96875 13.0625 -7.0625 L 13.0625 -27.9375 C 13.0625 -28.15625 13.144531 -28.347656 13.3125 -28.515625 C 13.476562 -28.679688 13.671875 -28.765625 13.890625 -28.765625 Z M 13.890625 -28.765625 "/></g></g></g><g fill="#9df856" fill-opacity="1"><g transform="translate(205.710285, 40.673654)"><g><path d="M 18.53125 -22.84375 L 18.53125 -17.296875 C 18.53125 -16.535156 18.28125 -15.894531 17.78125 -15.375 C 17.289062 -14.851562 16.675781 -14.523438 15.9375 -14.390625 L 15.9375 -14.296875 C 16.675781 -14.191406 17.289062 -13.867188 17.78125 -13.328125 C 18.28125 -12.796875 18.53125 -12.148438 18.53125 -11.390625 L 18.53125 -5.921875 C 18.53125 -4.003906 18.023438 -2.535156 17.015625 -1.515625 C 16.003906 -0.503906 14.523438 0 12.578125 0 L 2.71875 0 C 2.28125 0 2.0625 -0.21875 2.0625 -0.65625 L 2.0625 -28.109375 C 2.0625 -28.546875 2.28125 -28.765625 2.71875 -28.765625 L 12.578125 -28.765625 C 14.523438 -28.765625 16.003906 -28.265625 17.015625 -27.265625 C 18.023438 -26.265625 18.53125 -24.789062 18.53125 -22.84375 Z M 13.3125 -18.65625 L 13.3125 -21.9375 C 13.3125 -23.039062 12.765625 -23.59375 11.671875 -23.59375 L 7.15625 -23.59375 L 7.15625 -17.046875 L 11.671875 -17.046875 C 12.765625 -17.046875 13.3125 -17.582031 13.3125 -18.65625 Z M 13.3125 -6.828125 L 13.3125 -9.984375 C 13.3125 -11.078125 12.765625 -11.625 11.671875 -11.625 L 7.15625 -11.625 L 7.15625 -5.171875 L 11.671875 -5.171875 C 12.765625 -5.171875 13.3125 -5.722656 13.3125 -6.828125 Z M 13.3125 -6.828125 "/></g></g></g><g fill="#9df856" fill-opacity="1"><g transform="translate(226.294499, 40.673654)"><g><path d="M 2.71875 0 L 6.984375 0 C 7.421875 0 7.640625 -0.21875 7.640625 -0.65625 L 7.640625 -28.109375 C 7.640625 -28.546875 7.421875 -28.765625 6.984375 -28.765625 L 2.71875 -28.765625 C 2.28125 -28.765625 2.0625 -28.546875 2.0625 -28.109375 L 2.0625 -0.65625 C 2.0625 -0.21875 2.28125 0 2.71875 0 Z M 2.71875 0 "/></g></g></g><g fill="#9df856" fill-opacity="1"><g transform="translate(235.990853, 40.673654)"><g><path d="M 2.0625 -0.65625 L 2.0625 -28.109375 C 2.0625 -28.546875 2.28125 -28.765625 2.71875 -28.765625 L 12.578125 -28.765625 C 14.523438 -28.765625 16 -28.253906 17 -27.234375 C 18 -26.222656 18.5 -24.75 18.5 -22.8125 L 18.5 -5.921875 C 18.5 -4.003906 18 -2.535156 17 -1.515625 C 16 -0.503906 14.523438 0 12.578125 0 L 2.71875 0 C 2.28125 0 2.0625 -0.21875 2.0625 -0.65625 Z M 7.640625 -5.421875 L 11.421875 -5.421875 C 12.515625 -5.421875 13.0625 -5.96875 13.0625 -7.0625 L 13.0625 -21.65625 C 13.0625 -22.78125 12.515625 -23.34375 11.421875 -23.34375 L 7.640625 -23.34375 Z M 7.640625 -5.421875 "/></g></g></g><g fill="#9df856" fill-opacity="1"><g transform="translate(256.533981, 40.673654)"><g><path d="M 18.453125 -28.109375 L 18.453125 -24 C 18.453125 -23.53125 18.234375 -23.296875 17.796875 -23.296875 L 7.640625 -23.296875 L 7.640625 -16.96875 L 15.375 -16.96875 C 15.8125 -16.96875 16.03125 -16.734375 16.03125 -16.265625 L 16.03125 -12.203125 C 16.03125 -11.734375 15.8125 -11.5 15.375 -11.5 L 7.640625 -11.5 L 7.640625 -5.421875 L 17.796875 -5.421875 C 18.234375 -5.421875 18.453125 -5.203125 18.453125 -4.765625 L 18.453125 -0.65625 C 18.453125 -0.21875 18.234375 0 17.796875 0 L 2.671875 0 C 2.265625 0 2.0625 -0.21875 2.0625 -0.65625 L 2.0625 -28.109375 C 2.0625 -28.546875 2.265625 -28.765625 2.671875 -28.765625 L 17.796875 -28.765625 C 18.234375 -28.765625 18.453125 -28.546875 18.453125 -28.109375 Z M 18.453125 -28.109375 "/></g></g></g><g fill="#9df856" fill-opacity="1"><g transform="translate(275.803306, 40.673654)"><g><path d="M 7.96875 -28.765625 L 12.578125 -28.765625 C 14.523438 -28.765625 16 -28.265625 17 -27.265625 C 18 -26.265625 18.5 -24.789062 18.5 -22.84375 L 18.5 -20.140625 C 18.5 -19.703125 18.273438 -19.484375 17.828125 -19.484375 L 13.6875 -19.484375 C 13.25 -19.484375 13.03125 -19.703125 13.03125 -20.140625 L 13.03125 -21.859375 C 13.03125 -22.953125 12.484375 -23.5 11.390625 -23.5 L 9.125 -23.5 C 8.03125 -23.5 7.484375 -22.953125 7.484375 -21.859375 L 7.484375 -18.375 L 17.421875 -15.15625 C 18.140625 -14.914062 18.5 -14.410156 18.5 -13.640625 L 18.5 -5.921875 C 18.5 -4.003906 18 -2.535156 17 -1.515625 C 16 -0.503906 14.523438 0 12.578125 0 L 7.96875 0 C 6.050781 0 4.585938 -0.503906 3.578125 -1.515625 C 2.566406 -2.535156 2.0625 -4.003906 2.0625 -5.921875 L 2.0625 -8.59375 C 2.0625 -9.03125 2.28125 -9.25 2.71875 -9.25 L 6.859375 -9.25 C 7.296875 -9.25 7.515625 -9.03125 7.515625 -8.59375 L 7.515625 -6.859375 C 7.515625 -5.765625 8.0625 -5.21875 9.15625 -5.21875 L 11.390625 -5.21875 C 12.484375 -5.21875 13.03125 -5.765625 13.03125 -6.859375 L 13.03125 -11.015625 L 3.171875 -14.21875 C 2.429688 -14.46875 2.0625 -14.972656 2.0625 -15.734375 L 2.0625 -22.84375 C 2.0625 -24.789062 2.566406 -26.265625 3.578125 -27.265625 C 4.585938 -28.265625 6.050781 -28.765625 7.96875 -28.765625 Z M 7.96875 -28.765625 "/></g></g></g></g></g></g><g clip-path="url(#252ead5ccc)"><g clip-path="url(#d59364e85f)"><g clip-path="url(#a1fa944dcc)"><g clip-path="url(#543bf8e125)"><path fill="#000000" d="M 313.777344 35.671875 L 317.269531 55.957031 L 318.484375 55.746094 L 318.277344 54.554688 L 319.492188 54.34375 L 319.285156 53.152344 L 318.074219 53.359375 L 315.402344 37.847656 L 316.617188 37.640625 L 316.410156 36.449219 L 315.195312 36.65625 L 314.992188 35.460938 Z M 316.617188 37.640625 L 316.820312 38.832031 L 318.03125 38.625 L 317.828125 37.429688 Z M 318.03125 38.625 L 318.238281 39.816406 L 319.449219 39.609375 L 319.246094 38.414062 Z M 319.449219 39.609375 L 319.65625 40.800781 L 320.871094 40.59375 L 320.664062 39.398438 Z M 320.871094 40.59375 L 321.074219 41.785156 L 322.289062 41.578125 L 322.082031 40.386719 Z M 322.289062 41.578125 L 322.492188 42.773438 L 323.707031 42.5625 L 323.5 41.371094 Z M 323.707031 42.5625 L 323.910156 43.757812 L 325.125 43.546875 L 324.917969 42.355469 Z M 325.125 43.546875 L 325.328125 44.738281 L 326.542969 44.53125 L 326.335938 43.339844 Z M 326.542969 44.53125 L 326.75 45.722656 L 327.960938 45.515625 L 327.753906 44.320312 Z M 327.960938 45.515625 L 328.164062 46.707031 L 324.527344 47.335938 L 325.144531 50.914062 L 326.355469 50.707031 L 325.945312 48.320312 L 330.796875 47.484375 L 330.589844 46.289062 L 329.378906 46.5 L 329.171875 45.304688 Z M 326.355469 50.707031 L 326.769531 53.09375 L 327.980469 52.882812 L 327.570312 50.496094 Z M 327.980469 52.882812 L 328.390625 55.269531 L 329.605469 55.0625 L 329.191406 52.675781 Z M 329.605469 55.0625 L 330.015625 57.449219 L 331.226562 57.238281 L 330.816406 54.851562 Z M 330.015625 57.449219 L 327.589844 57.867188 L 327.796875 59.058594 L 330.21875 58.640625 Z M 327.589844 57.867188 L 327.179688 55.480469 L 325.964844 55.6875 L 326.378906 58.074219 Z M 325.964844 55.6875 L 325.554688 53.300781 L 324.34375 53.507812 L 324.753906 55.894531 Z M 324.34375 53.507812 L 323.929688 51.125 L 322.71875 51.332031 L 323.128906 53.71875 Z M 322.71875 51.332031 L 322.308594 48.945312 L 321.09375 49.15625 L 321.300781 50.347656 L 320.085938 50.558594 L 320.292969 51.75 Z M 320.292969 51.75 L 319.082031 51.960938 L 319.285156 53.152344 L 320.5 52.945312 Z M 320.292969 51.75 " fill-opacity="1" fill-rule="evenodd"/></g></g></g></g><g clip-path="url(#4117d62029)"><g clip-path="url(#65c41f2ce7)"><g clip-path="url(#215ce5d46a)"><g clip-path="url(#ce3859beaf)"><path fill="#ffffff" d="M 315.402344 37.847656 L 318.074219 53.359375 L 319.285156 53.152344 L 319.082031 51.960938 L 320.292969 51.75 L 320.085938 50.558594 L 321.300781 50.347656 L 321.09375 49.15625 L 322.308594 48.945312 L 322.71875 51.332031 L 323.929688 51.125 L 324.34375 53.507812 L 325.554688 53.300781 L 325.964844 55.6875 L 327.179688 55.480469 L 327.589844 57.867188 L 330.015625 57.449219 L 329.605469 55.0625 L 328.390625 55.269531 L 327.980469 52.882812 L 326.769531 53.09375 L 326.355469 50.707031 L 325.144531 50.914062 L 324.527344 47.335938 L 328.164062 46.707031 L 327.960938 45.515625 L 326.75 45.722656 L 326.542969 44.53125 L 325.328125 44.738281 L 325.125 43.546875 L 323.910156 43.757812 L 323.707031 42.5625 L 322.492188 42.773438 L 322.289062 41.578125 L 321.074219 41.785156 L 320.871094 40.59375 L 319.65625 40.800781 L 319.449219 39.609375 L 318.238281 39.816406 L 318.03125 38.625 L 316.820312 38.832031 L 316.617188 37.640625 Z M 315.402344 37.847656 " fill-opacity="1" fill-rule="nonzero"/></g></g></g></g></g></g></svg>